<?xml version="1.0" encoding="UTF-8"?>
<svg width="64" height="64" viewBox="0 0 64 64" fill="none" xmlns="http://www.w3.org/2000/svg">
    <circle cx="32" cy="32" r="30" fill="#4CAF50"/>
    <path d="M20 24C22.2091 24 24 22.2091 24 20C24 17.7909 22.2091 16 20 16C17.7909 16 16 17.7909 16 20C16 22.2091 17.7909 24 20 24Z" fill="white"/>
    <path d="M44 24C46.2091 24 48 22.2091 48 20C48 17.7909 46.2091 16 44 16C41.7909 16 40 17.7909 40 20C40 22.2091 41.7909 24 44 24Z" fill="white"/>
    <path d="M32 48C40.2843 48 47 41.2843 47 33H17C17 41.2843 23.7157 48 32 48Z" fill="white"/>
</svg> 